<?xml version="1.0" encoding="UTF-8"?>
<!DOCTYPE svg PUBLIC "-//W3C//DTD SVG 1.1//EN" "http://www.w3.org/Graphics/SVG/1.1/DTD/svg11.dtd">
<svg xmlns="http://www.w3.org/2000/svg" version="1.1" width="1226px" height="630px" style="shape-rendering:geometricPrecision; text-rendering:geometricPrecision; image-rendering:optimizeQuality; fill-rule:evenodd; clip-rule:evenodd" xmlns:xlink="http://www.w3.org/1999/xlink">
<g><path style="opacity:1" fill="#fefefe" d="M -0.5,-0.5 C 408.167,-0.5 816.833,-0.5 1225.5,-0.5C 1225.5,209.5 1225.5,419.5 1225.5,629.5C 816.833,629.5 408.167,629.5 -0.5,629.5C -0.5,419.5 -0.5,209.5 -0.5,-0.5 Z"/></g>
<g><path style="opacity:1" fill="#fbefc8" d="M 737.5,100.5 C 737.741,98.1137 737.075,96.1137 735.5,94.5C 715.264,93.1745 694.931,93.1745 674.5,94.5C 695.474,92.5112 716.807,91.8445 738.5,92.5C 738.806,95.3854 738.473,98.0521 737.5,100.5 Z"/></g>
<g><path style="opacity:1" fill="#cdb34c" d="M 735.5,94.5 C 715.121,94.1901 694.787,94.5234 674.5,95.5C 674.5,95.1667 674.5,94.8333 674.5,94.5C 694.931,93.1745 715.264,93.1745 735.5,94.5 Z"/></g>
<g><path style="opacity:1" fill="#d4b130" d="M 735.5,94.5 C 737.075,96.1137 737.741,98.1137 737.5,100.5C 737.267,102.062 736.6,103.395 735.5,104.5C 727.5,104.5 719.5,104.5 711.5,104.5C 711.5,160.5 711.5,216.5 711.5,272.5C 709.958,271.699 708.292,271.366 706.5,271.5C 706.5,272.5 706.5,273.5 706.5,274.5C 705.5,274.5 704.5,274.5 703.5,274.5C 703.5,275.5 703.5,276.5 703.5,277.5C 702.178,277.33 701.011,277.663 700,278.5C 699.667,277.833 699.333,277.167 699,276.5C 698.282,277.451 697.449,277.617 696.5,277C 699.97,274.877 699.97,273.71 696.5,273.5C 697.167,272.833 697.833,272.167 698.5,271.5C 699.499,216.002 699.832,160.336 699.5,104.5C 692.167,104.5 684.833,104.5 677.5,104.5C 675.983,104.489 674.816,103.823 674,102.5C 673.204,99.9615 673.371,97.6282 674.5,95.5C 694.787,94.5234 715.121,94.1901 735.5,94.5 Z"/></g>
<g><path style="opacity:1" fill="#fefcf5" d="M 691.5,141.5 C 689.833,140.5 688.5,139.167 687.5,137.5C 688.583,137.539 689.583,137.873 690.5,138.5C 691.59,137.609 691.59,136.609 690.5,135.5C 607.835,134.667 525.169,134.167 442.5,134C 443.108,133.13 443.941,132.63 445,132.5C 526.212,132.525 607.545,132.525 689,132.5C 690.944,133.688 692.444,135.354 693.5,137.5C 692.37,138.622 691.703,139.956 691.5,141.5 Z"/></g>
<g><path style="opacity:1" fill="#fbf1c3" d="M 735.5,104.5 C 728.018,105.492 720.352,105.825 712.5,105.5C 712.5,160.833 712.5,216.167 712.5,271.5C 719.687,271.175 726.687,271.509 733.5,272.5C 726.167,272.5 718.833,272.5 711.5,272.5C 711.5,216.5 711.5,160.5 711.5,104.5C 719.5,104.5 727.5,104.5 735.5,104.5 Z"/></g>
<g><path style="opacity:1" fill="#ceb852" d="M 793.5,143.5 C 790.407,141.785 787.073,140.451 783.5,139.5C 763.842,138.334 744.175,138.167 724.5,139C 722.887,141.228 722.22,143.728 722.5,146.5C 722.167,146.5 721.833,146.5 721.5,146.5C 720.008,143.621 720.341,140.954 722.5,138.5C 743.492,137.334 764.492,137.167 785.5,138C 788.599,139.276 791.266,141.11 793.5,143.5 Z"/></g>
<g><path style="opacity:1" fill="#d1b02a" d="M 687.5,137.5 C 688.5,139.167 689.833,140.5 691.5,141.5C 692.109,144.878 690.776,146.878 687.5,147.5C 687.5,147.833 687.5,148.167 687.5,148.5C 606.166,148.333 524.833,148.5 443.5,149C 443,149.5 442.5,150 442,150.5C 441.17,175.67 441.337,200.67 442.5,225.5C 442.833,226.167 443.167,226.833 443.5,227.5C 443.833,228.167 444.167,228.833 444.5,229.5C 440.477,228.884 436.977,227.217 434,224.5C 433.694,226.951 434.194,229.284 435.5,231.5C 437.901,228.587 439.234,228.921 439.5,232.5C 438.448,232.351 437.448,232.517 436.5,233C 437.381,233.708 438.047,234.542 438.5,235.5C 438.167,235.5 437.833,235.5 437.5,235.5C 434.246,233.323 432.246,230.323 431.5,226.5C 431.5,200.5 431.5,174.5 431.5,148.5C 433.933,144.232 437.266,140.732 441.5,138C 523.499,137.5 605.499,137.333 687.5,137.5 Z"/></g>
<g><path style="opacity:1" fill="#cbb318" d="M 471.5,138.5 C 532.837,138.167 594.17,138.5 655.5,139.5C 585.932,140.168 516.432,140.835 447,141.5C 446.5,141 446,140.5 445.5,140C 454.343,139.83 463.01,139.33 471.5,138.5 Z"/></g>
<g><path style="opacity:1" fill="#dcb129" d="M 687.5,147.5 C 610.166,147.667 532.833,147.5 455.5,147C 529.675,146.171 603.842,145.005 678,143.5C 681.2,143.656 684.367,143.989 687.5,144.5C 687.5,145.5 687.5,146.5 687.5,147.5 Z"/></g>
<g><path style="opacity:1" fill="#fcf6d2" d="M 677.5,104.5 C 684.833,104.5 692.167,104.5 699.5,104.5C 699.832,160.336 699.499,216.002 698.5,271.5C 698.5,216.167 698.5,160.833 698.5,105.5C 691.313,105.825 684.313,105.491 677.5,104.5 Z"/></g>
<g><path style="opacity:1" fill="#e0cc87" d="M 687.5,148.5 C 606.668,149.333 525.668,149.833 444.5,150C 443.944,150.383 443.611,150.883 443.5,151.5C 442.503,172.994 442.169,194.66 442.5,216.5C 442.5,219.5 442.5,222.5 442.5,225.5C 441.337,200.67 441.17,175.67 442,150.5C 442.5,150 443,149.5 443.5,149C 524.833,148.5 606.166,148.333 687.5,148.5 Z"/></g>
<g><path style="opacity:1" fill="#e3cc82" d="M 721.5,146.5 C 721.833,146.5 722.167,146.5 722.5,146.5C 723.289,146.783 723.956,147.283 724.5,148C 744.338,148.168 764.004,148.668 783.5,149.5C 763.497,149.667 743.497,149.5 723.5,149C 722.619,148.292 721.953,147.458 721.5,146.5 Z"/></g>
<g><path style="opacity:1" fill="#fefef2" d="M 443.5,151.5 C 519.332,152.333 595.332,152.833 671.5,153C 655.518,154 639.518,154.5 623.5,154.5C 563.505,154.501 503.672,154.167 444,153.5C 443.832,174.671 443.332,195.671 442.5,216.5C 442.169,194.66 442.503,172.994 443.5,151.5 Z"/></g>
<g><path style="opacity:1" fill="#cbb141" d="M 795.5,146.5 C 796.117,146.611 796.617,146.944 797,147.5C 797.83,174.67 797.664,201.67 796.5,228.5C 796.816,201.122 796.483,173.789 795.5,146.5 Z"/></g>
<g><path style="opacity:1" fill="#d6c05b" d="M 783.5,149.5 C 784.833,149.5 786.167,149.5 787.5,149.5C 787.667,174.502 787.5,199.502 787,224.5C 786.617,225.056 786.117,225.389 785.5,225.5C 786.143,199.939 785.476,174.606 783.5,149.5 Z"/></g>
<g><path style="opacity:1" fill="#d2ae23" d="M 793.5,143.5 C 794.401,144.29 795.068,145.29 795.5,146.5C 796.483,173.789 796.816,201.122 796.5,228.5C 794.199,232.801 790.866,236.134 786.5,238.5C 780.202,239.496 773.868,239.83 767.5,239.5C 753.421,239.815 739.421,239.482 725.5,238.5C 721.493,234.82 721.827,231.486 726.5,228.5C 745.863,229.154 764.863,228.487 783.5,226.5C 784.167,226.167 784.833,225.833 785.5,225.5C 786.117,225.389 786.617,225.056 787,224.5C 787.5,199.502 787.667,174.502 787.5,149.5C 786.167,149.5 784.833,149.5 783.5,149.5C 764.004,148.668 744.338,148.168 724.5,148C 723.956,147.283 723.289,146.783 722.5,146.5C 722.22,143.728 722.887,141.228 724.5,139C 744.175,138.167 763.842,138.334 783.5,139.5C 787.073,140.451 790.407,141.785 793.5,143.5 Z"/></g>
<g><path style="opacity:1" fill="#e9dba4" d="M 431.5,148.5 C 431.5,174.5 431.5,200.5 431.5,226.5C 430.167,214.018 429.501,201.185 429.5,188C 429.667,175.167 429.833,162.333 430,149.5C 430.383,148.944 430.883,148.611 431.5,148.5 Z"/></g>
<g><path style="opacity:1" fill="#fcf4cf" d="M 783.5,226.5 C 764.863,228.487 745.863,229.154 726.5,228.5C 726.611,227.883 726.944,227.383 727.5,227C 746.164,226.5 764.83,226.333 783.5,226.5 Z"/></g>
<g><path style="opacity:1" fill="#dbcb74" d="M 443.5,227.5 C 525.167,227.333 606.834,227.5 688.5,228C 689.381,228.708 690.047,229.542 690.5,230.5C 609.541,229.506 528.541,229.172 447.5,229.5C 446.5,229.5 445.5,229.5 444.5,229.5C 444.167,228.833 443.833,228.167 443.5,227.5 Z"/></g>
<g><path style="opacity:1" fill="#cbb016" d="M 447.5,229.5 C 528.541,229.172 609.541,229.506 690.5,230.5C 690.631,231.376 690.298,232.043 689.5,232.5C 687.121,230.958 684.454,230.291 681.5,230.5C 614.175,231.646 546.841,231.813 479.5,231C 468.659,230.83 457.992,230.33 447.5,229.5 Z"/></g>
<g><path style="opacity:1" fill="#d5b120" d="M 444.5,229.5 C 445.5,229.5 446.5,229.5 447.5,229.5C 457.992,230.33 468.659,230.83 479.5,231C 546.841,231.813 614.175,231.646 681.5,230.5C 684.454,230.291 687.121,230.958 689.5,232.5C 690.298,232.043 690.631,231.376 690.5,230.5C 691.167,230.5 691.5,230.833 691.5,231.5C 691.893,234.513 691.226,237.18 689.5,239.5C 688.833,239.5 688.167,239.5 687.5,239.5C 686.167,239.5 684.833,239.5 683.5,239.5C 603.999,238.833 524.332,238.167 444.5,237.5C 442.505,236.705 440.505,236.039 438.5,235.5C 438.047,234.542 437.381,233.708 436.5,233C 437.448,232.517 438.448,232.351 439.5,232.5C 439.234,228.921 437.901,228.587 435.5,231.5C 434.194,229.284 433.694,226.951 434,224.5C 436.977,227.217 440.477,228.884 444.5,229.5 Z"/></g>
<g><path style="opacity:1" fill="#e2bf40" d="M 437.5,235.5 C 437.833,235.5 438.167,235.5 438.5,235.5C 440.505,236.039 442.505,236.705 444.5,237.5C 524.332,238.167 603.999,238.833 683.5,239.5C 602.763,239.83 522.096,239.497 441.5,238.5C 439.77,237.974 438.436,236.974 437.5,235.5 Z"/></g>
<g><path style="opacity:1" fill="#faecab" d="M 691.5,231.5 C 693.958,233.493 694.125,235.826 692,238.5C 691.329,239.252 690.496,239.586 689.5,239.5C 691.226,237.18 691.893,234.513 691.5,231.5 Z"/></g>
<g><path style="opacity:1" fill="#f9f5ea" d="M 441.5,238.5 C 522.096,239.497 602.763,239.83 683.5,239.5C 684.833,239.5 686.167,239.5 687.5,239.5C 675.852,240.832 663.852,241.499 651.5,241.5C 589.959,242.221 528.459,242.888 467,243.5C 460.51,242.889 454.01,242.222 447.5,241.5C 445.025,241.036 443.025,240.036 441.5,238.5 Z"/></g>
<g><path style="opacity:1" fill="#f9f4e4" d="M 725.5,238.5 C 739.421,239.482 753.421,239.815 767.5,239.5C 760.867,240.83 753.867,241.497 746.5,241.5C 739.5,241.333 732.5,241.167 725.5,241C 724.833,240.667 724.167,240.333 723.5,240C 724.416,239.722 725.082,239.222 725.5,238.5 Z"/></g>
<g><path style="opacity:1" fill="#dfcb78" d="M 698.5,271.5 C 697.833,272.167 697.167,272.833 696.5,273.5C 689.825,273.334 683.158,273.5 676.5,274C 674.081,275.509 673.081,277.675 673.5,280.5C 671.798,276.946 672.798,274.113 676.5,272C 683.826,271.5 691.159,271.334 698.5,271.5 Z"/></g>
<g><path style="opacity:1" fill="#d4b427" d="M 711.5,272.5 C 718.833,272.5 726.167,272.5 733.5,272.5C 735.659,273.828 737.326,275.662 738.5,278C 738.505,280.163 737.505,281.663 735.5,282.5C 715.508,283.666 695.508,283.833 675.5,283C 674.619,282.292 673.953,281.458 673.5,280.5C 673.081,277.675 674.081,275.509 676.5,274C 683.158,273.5 689.825,273.334 696.5,273.5C 699.97,273.71 699.97,274.877 696.5,277C 697.449,277.617 698.282,277.451 699,276.5C 699.333,277.167 699.667,277.833 700,278.5C 701.011,277.663 702.178,277.33 703.5,277.5C 703.5,276.5 703.5,275.5 703.5,274.5C 704.5,274.5 705.5,274.5 706.5,274.5C 706.5,273.5 706.5,272.5 706.5,271.5C 708.292,271.366 709.958,271.699 711.5,272.5 Z"/></g>
<g><path style="opacity:1" fill="#ddce86" d="M 133.5,417.5 C 125.493,417.334 117.493,417.5 109.5,418C 107.186,419.267 104.852,420.434 102.5,421.5C 103.986,419.381 105.986,417.881 108.5,417C 117.01,416.177 125.344,416.343 133.5,417.5 Z"/></g>
<g><path style="opacity:1" fill="#e9df90" d="M 527.5,417.5 C 526.167,417.5 524.833,417.5 523.5,417.5C 523.62,416.414 524.287,415.747 525.5,415.5C 526.713,415.747 527.38,416.414 527.5,417.5 Z"/></g>
<g><path style="opacity:1" fill="#c3bd8f" d="M 1141.5,417.5 C 1116.5,417.5 1091.5,417.5 1066.5,417.5C 1066.08,419.781 1066.74,421.448 1068.5,422.5C 1078.83,422.5 1089.17,422.5 1099.5,422.5C 1099.5,422.833 1099.5,423.167 1099.5,423.5C 1088.17,423.5 1076.83,423.5 1065.5,423.5C 1065.5,421.167 1065.5,418.833 1065.5,416.5C 1091.01,416.169 1116.34,416.502 1141.5,417.5 Z"/></g>
<g><path style="opacity:1" fill="#d7c058" d="M 171.5,421.5 C 170.089,420.092 168.423,419.092 166.5,418.5C 165.833,418.833 165.167,419.167 164.5,419.5C 165.127,420.417 165.461,421.417 165.5,422.5C 164.038,421.199 162.704,419.699 161.5,418C 164.078,414.701 166.745,414.701 169.5,418C 170.823,418.816 171.489,419.983 171.5,421.5 Z"/></g>
<g><path style="opacity:1" fill="#d0ba79" d="M 237.5,417.5 C 239.265,416.539 241.265,416.205 243.5,416.5C 243.768,418.099 243.434,419.432 242.5,420.5C 242.5,419.5 242.5,418.5 242.5,417.5C 240.833,417.5 239.167,417.5 237.5,417.5 Z"/></g>
<g><path style="opacity:1" fill="#beae5f" d="M 783.5,418.5 C 768.833,418.5 754.167,418.5 739.5,418.5C 739.5,419.5 739.5,420.5 739.5,421.5C 750.884,421.21 762.217,421.543 773.5,422.5C 773.5,422.833 773.5,423.167 773.5,423.5C 761.833,423.5 750.167,423.5 738.5,423.5C 738.5,421.167 738.5,418.833 738.5,416.5C 751.504,416.333 764.504,416.5 777.5,417C 779.708,417.191 781.708,417.691 783.5,418.5 Z"/></g>
<g><path style="opacity:1" fill="#8f8129" d="M 1141.5,417.5 C 1141.6,419.553 1140.93,421.22 1139.5,422.5C 1128.75,422.191 1118.09,422.524 1107.5,423.5C 1117.78,421.524 1128.45,420.857 1139.5,421.5C 1139.5,420.5 1139.5,419.5 1139.5,418.5C 1115.83,418.333 1092.16,418.5 1068.5,419C 1069.33,419.915 1070.33,420.581 1071.5,421C 1070.26,421.232 1069.26,421.732 1068.5,422.5C 1066.74,421.448 1066.08,419.781 1066.5,417.5C 1091.5,417.5 1116.5,417.5 1141.5,417.5 Z"/></g>
<g><path style="opacity:1" fill="#baa95d" d="M 885.5,420.5 C 881.428,419.117 877.428,419.284 873.5,421C 876.66,422.371 879.994,423.371 883.5,424C 885.324,424.66 886.657,425.827 887.5,427.5C 883.826,425.445 879.826,424.278 875.5,424C 861.504,423.5 847.504,423.333 833.5,423.5C 833.205,421.265 833.539,419.265 834.5,417.5C 847.66,416.34 860.994,416.173 874.5,417C 878.491,417.498 882.158,418.665 885.5,420.5 Z"/></g>
<g><path style="opacity:1" fill="#d7b024" d="M 133.5,417.5 C 141.111,417.803 147.111,420.97 151.5,427C 151.333,428.5 150.5,429.333 149,429.5C 144.772,427.137 140.272,425.471 135.5,424.5C 133.095,423.232 130.428,422.565 127.5,422.5C 125.527,421.837 123.361,421.504 121,421.5C 117.523,421.328 114.356,421.994 111.5,423.5C 106.74,424.189 103.073,426.522 100.5,430.5C 98.4677,431.048 97.4677,432.381 97.5,434.5C 96.8826,434.611 96.3826,434.944 96,435.5C 95.5012,441.516 95.6679,447.516 96.5,453.5C 95.5,453.5 94.5,453.5 93.5,453.5C 93.5,453.167 93.5,452.833 93.5,452.5C 92.9224,448.344 91.9224,444.344 90.5,440.5C 90.8333,439.5 91.1667,438.5 91.5,437.5C 92.1667,439.167 92.8333,440.833 93.5,442.5C 94.7054,439.052 94.3721,435.718 92.5,432.5C 93.0924,430.577 94.0924,428.911 95.5,427.5C 96.7791,424.348 99.1125,422.348 102.5,421.5C 104.852,420.434 107.186,419.267 109.5,418C 117.493,417.5 125.493,417.334 133.5,417.5 Z"/></g>
<g><path style="opacity:1" fill="#c8ab23" d="M 428.5,421.5 C 417.5,422.167 406.5,422.833 395.5,423.5C 393.598,425.151 391.598,425.484 389.5,424.5C 389.853,422.365 389.02,421.032 387,420.5C 376.519,421.799 366.019,421.799 355.5,420.5C 355.709,419.914 356.043,419.414 356.5,419C 380.498,418.5 404.498,418.333 428.5,418.5C 428.5,419.5 428.5,420.5 428.5,421.5 Z"/></g>
<g><path style="opacity:1" fill="#9c8720" d="M 1107.5,423.5 C 1106.18,423.67 1105.01,423.337 1104,422.5C 1103.67,425.5 1103.33,428.5 1103,431.5C 1102.67,428.833 1102.33,426.167 1102,423.5C 1101.33,422.748 1100.5,422.414 1099.5,422.5C 1089.17,422.5 1078.83,422.5 1068.5,422.5C 1069.26,421.732 1070.26,421.232 1071.5,421C 1070.33,420.581 1069.33,419.915 1068.5,419C 1092.16,418.5 1115.83,418.333 1139.5,418.5C 1139.5,419.5 1139.5,420.5 1139.5,421.5C 1128.45,420.857 1117.78,421.524 1107.5,423.5 Z"/></g>
<g><path style="opacity:1" fill="#ae951f" d="M 783.5,418.5 C 785.786,418.595 787.786,419.262 789.5,420.5C 789.5,421.5 789.5,422.5 789.5,423.5C 784.187,422.902 778.854,422.569 773.5,422.5C 762.217,421.543 750.884,421.21 739.5,421.5C 739.5,420.5 739.5,419.5 739.5,418.5C 754.167,418.5 768.833,418.5 783.5,418.5 Z"/></g>
<g><path style="opacity:1" fill="#a68f21" d="M 834.5,417.5 C 846.891,417.197 859.224,417.863 871.5,419.5C 870.271,420.281 868.938,420.781 867.5,421C 856.505,421.5 845.505,421.667 834.5,421.5C 834.5,420.167 834.5,418.833 834.5,417.5 Z"/></g>
<g><path style="opacity:1" fill="#dcc97f" d="M 127.5,422.5 C 122.13,422.392 116.797,422.725 111.5,423.5C 114.356,421.994 117.523,421.328 121,421.5C 123.361,421.504 125.527,421.837 127.5,422.5 Z"/></g>
<g><path style="opacity:1" fill="#ccb85a" d="M 429.5,421.5 C 429.167,421.5 428.833,421.5 428.5,421.5C 428.5,420.5 428.5,419.5 428.5,418.5C 404.498,418.333 380.498,418.5 356.5,419C 356.043,419.414 355.709,419.914 355.5,420.5C 366.019,421.799 376.519,421.799 387,420.5C 389.02,421.032 389.853,422.365 389.5,424.5C 389.5,453.5 389.5,482.5 389.5,511.5C 388.502,482.338 388.169,453.005 388.5,423.5C 377.167,423.5 365.833,423.5 354.5,423.5C 354.5,421.167 354.5,418.833 354.5,416.5C 379.169,416.333 403.836,416.5 428.5,417C 429.38,418.356 429.714,419.856 429.5,421.5 Z"/></g>
<g><path style="opacity:1" fill="#ecdb95" d="M 428.5,421.5 C 428.833,421.5 429.167,421.5 429.5,421.5C 418.549,423.478 407.216,424.144 395.5,423.5C 406.5,422.833 417.5,422.167 428.5,421.5 Z"/></g>
<g><path style="opacity:1" fill="#fcf6dd" d="M 127.5,422.5 C 130.428,422.565 133.095,423.232 135.5,424.5C 126.836,423.44 118.17,423.607 109.5,425C 111.26,425.965 111.594,427.132 110.5,428.5C 109.065,426.599 107.398,426.266 105.5,427.5C 106.167,428.167 106.833,428.833 107.5,429.5C 105.956,430.622 104.623,430.289 103.5,428.5C 102.735,429.612 101.735,430.279 100.5,430.5C 103.073,426.522 106.74,424.189 111.5,423.5C 116.797,422.725 122.13,422.392 127.5,422.5 Z"/></g>
<g><path style="opacity:1" fill="#c5a94b" d="M 476.5,418.5 C 473.881,418.232 471.381,418.565 469,419.5C 468.568,422.93 467.734,426.264 466.5,429.5C 466.667,430.5 466.833,431.5 467,432.5C 468.039,431.29 469.206,430.29 470.5,429.5C 466.901,437.033 463.568,444.7 460.5,452.5C 460.167,452.5 459.833,452.5 459.5,452.5C 459.612,447.501 460.779,442.834 463,438.5C 463.333,439.167 463.667,439.833 464,440.5C 465.373,438.305 465.706,435.971 465,433.5C 464.683,435.301 464.016,435.634 463,434.5C 461.406,436.526 459.906,438.526 458.5,440.5C 461.959,433.391 465.126,426.058 468,418.5C 470.95,415.855 473.783,415.855 476.5,418.5 Z"/></g>
<g><path style="opacity:1" fill="#b9a13f" d="M 699.5,467.5 C 693.241,466.137 686.908,465.137 680.5,464.5C 678.97,464.64 677.97,465.307 677.5,466.5C 676.833,466.5 676.167,466.5 675.5,466.5C 668.717,465.291 662.383,462.791 656.5,459C 648.537,451.296 646.37,442.13 650,431.5C 656.467,420.849 665.967,415.849 678.5,416.5C 689.674,415.641 700.007,418.141 709.5,424C 710.276,426.313 709.443,428.146 707,429.5C 692.906,421.84 678.406,420.673 663.5,426C 653.655,434.648 652.989,443.981 661.5,454C 671.224,459.019 681.558,462.352 692.5,464C 695.174,464.67 697.507,465.837 699.5,467.5 Z"/></g>
<g><path style="opacity:1" fill="#ebe6cf" d="M 937.5,417.5 C 935.5,417.5 933.5,417.5 931.5,417.5C 931.5,448.833 931.5,480.167 931.5,511.5C 933.5,511.5 935.5,511.5 937.5,511.5C 935.485,512.924 933.152,513.59 930.5,513.5C 930.667,481.832 930.5,450.165 930,418.5C 929.333,417.167 928.667,417.167 928,418.5C 927.517,417.552 927.351,416.552 927.5,415.5C 931.04,415.753 934.373,416.419 937.5,417.5 Z"/></g>
<g><path style="opacity:1" fill="#ceac38" d="M 264.5,417.5 C 268.102,421.605 271.935,425.605 276,429.5C 293.128,451.763 310.294,473.763 327.5,495.5C 327.5,496.167 327.5,496.833 327.5,497.5C 328.209,498.404 329.209,498.737 330.5,498.5C 330.5,471.5 330.5,444.5 330.5,417.5C 332.167,417.5 333.833,417.5 335.5,417.5C 336.167,417.5 336.833,417.5 337.5,417.5C 337.5,448.833 337.5,480.167 337.5,511.5C 335.473,511.662 333.473,511.495 331.5,511C 328.031,507.188 324.698,503.355 321.5,499.5C 305.544,477.915 288.878,456.915 271.5,436.5C 270.058,435.18 269.392,433.514 269.5,431.5C 268.5,431.5 267.5,431.5 266.5,431.5C 266.5,458.167 266.5,484.833 266.5,511.5C 264.5,511.5 262.5,511.5 260.5,511.5C 260.5,480.167 260.5,448.833 260.5,417.5C 261.833,417.5 263.167,417.5 264.5,417.5 Z"/></g>
<g><path style="opacity:1" fill="#dbba43" d="M 95.5,427.5 C 94.0924,428.911 93.0924,430.577 92.5,432.5C 94.3721,435.718 94.7054,439.052 93.5,442.5C 92.8333,440.833 92.1667,439.167 91.5,437.5C 91.1667,438.5 90.8333,439.5 90.5,440.5C 91.9224,444.344 92.9224,448.344 93.5,452.5C 90.2459,449.637 88.9125,445.97 89.5,441.5C 89.4328,437.305 90.2661,433.305 92,429.5C 92.8159,428.177 93.9826,427.511 95.5,427.5 Z"/></g>
<g><path style="opacity:1" fill="#e4d083" d="M 335.5,417.5 C 333.833,417.5 332.167,417.5 330.5,417.5C 330.5,444.5 330.5,471.5 330.5,498.5C 329.209,498.737 328.209,498.404 327.5,497.5C 329.491,471.188 330.158,444.521 329.5,417.5C 331.5,416.167 333.5,416.167 335.5,417.5 Z"/></g>
<g><path style="opacity:1" fill="#c3a739" d="M 476.5,418.5 C 485.989,436.104 494.822,454.104 503,472.5C 507.816,484.966 513.316,497.132 519.5,509C 520.167,509.667 520.833,509.667 521.5,509C 522.163,507.482 523.163,506.315 524.5,505.5C 523.85,507.435 523.517,509.435 523.5,511.5C 519.5,511.5 515.5,511.5 511.5,511.5C 503.656,491.478 494.99,471.812 485.5,452.5C 485.532,448.2 483.865,444.867 480.5,442.5C 478.754,437.35 476.754,432.35 474.5,427.5C 474.306,425.088 472.973,424.088 470.5,424.5C 470.5,426.167 470.5,427.833 470.5,429.5C 469.206,430.29 468.039,431.29 467,432.5C 466.833,431.5 466.667,430.5 466.5,429.5C 467.734,426.264 468.568,422.93 469,419.5C 471.381,418.565 473.881,418.232 476.5,418.5 Z"/></g>
<g><path style="opacity:1" fill="#cbbb7a" d="M 474.5,427.5 C 473.85,427.196 473.183,426.863 472.5,426.5C 471.824,427.602 471.158,428.602 470.5,429.5C 470.5,427.833 470.5,426.167 470.5,424.5C 472.973,424.088 474.306,425.088 474.5,427.5 Z"/></g>
<g><path style="opacity:1" fill="#c6ba86" d="M 903.5,435.5 C 904.924,437.515 905.59,439.848 905.5,442.5C 904.076,440.485 903.41,438.152 903.5,435.5 Z"/></g>
<g><path style="opacity:1" fill="#d6c17d" d="M 480.5,442.5 C 483.865,444.867 485.532,448.2 485.5,452.5C 483.838,449.262 482.171,445.929 480.5,442.5 Z"/></g>
<g><path style="opacity:1" fill="#f9ebc4" d="M 271.5,436.5 C 270.417,436.461 269.417,436.127 268.5,435.5C 267.833,460.997 267.167,486.33 266.5,511.5C 266.5,484.833 266.5,458.167 266.5,431.5C 267.5,431.5 268.5,431.5 269.5,431.5C 269.392,433.514 270.058,435.18 271.5,436.5 Z"/></g>
<g><path style="opacity:1" fill="#cec393" d="M 801.5,438.5 C 802.222,438.918 802.722,439.584 803,440.5C 803.814,445.02 803.647,449.354 802.5,453.5C 802.587,448.463 802.254,443.463 801.5,438.5 Z"/></g>
<g><path style="opacity:1" fill="#ae9431" d="M 789.5,420.5 C 798.209,423.033 804.709,428.367 809,436.5C 813.951,457.063 806.784,471.23 787.5,479C 782.863,479.829 778.196,480.329 773.5,480.5C 763.833,480.5 754.167,480.5 744.5,480.5C 744.5,490.833 744.5,501.167 744.5,511.5C 742.5,511.5 740.5,511.5 738.5,511.5C 738.5,499.5 738.5,487.5 738.5,475.5C 751.677,475.829 764.677,475.495 777.5,474.5C 791.108,473.544 799.442,466.544 802.5,453.5C 803.647,449.354 803.814,445.02 803,440.5C 802.722,439.584 802.222,438.918 801.5,438.5C 798.99,432.491 794.657,428.324 788.5,426C 783.543,424.842 778.543,424.008 773.5,423.5C 773.5,423.167 773.5,422.833 773.5,422.5C 778.854,422.569 784.187,422.902 789.5,423.5C 789.5,422.5 789.5,421.5 789.5,420.5 Z"/></g>
<g><path style="opacity:1" fill="#fdf7df" d="M 329.5,417.5 C 330.158,444.521 329.491,471.188 327.5,497.5C 327.5,496.833 327.5,496.167 327.5,495.5C 328.167,469.5 328.833,443.5 329.5,417.5 Z"/></g>
<g><path style="opacity:1" fill="#d2c08e" d="M 459.5,452.5 C 459.833,452.5 460.167,452.5 460.5,452.5C 459.492,454.544 458.492,456.544 457.5,458.5C 457.253,456.142 457.919,454.142 459.5,452.5 Z"/></g>
<g><path style="opacity:1" fill="#f4efda" d="M 1139.5,422.5 C 1139.39,423.117 1139.06,423.617 1138.5,424C 1128.51,424.5 1118.51,424.666 1108.5,424.5C 1108.83,453.671 1108.5,482.671 1107.5,511.5C 1107.5,482.167 1107.5,452.833 1107.5,423.5C 1118.09,422.524 1128.75,422.191 1139.5,422.5 Z"/></g>
<g><path style="opacity:1" fill="#bca139" d="M 523.5,511.5 C 523.517,509.435 523.85,507.435 524.5,505.5C 534.246,490.918 544.579,476.752 555.5,463C 545.284,448.081 534.45,433.581 523,419.5C 522.308,418.563 522.475,417.897 523.5,417.5C 524.833,417.5 526.167,417.5 527.5,417.5C 529.903,417.393 531.736,418.393 533,420.5C 540.245,429.99 547.245,439.656 554,449.5C 556.021,451.605 558.021,453.605 560,455.5C 562.54,453.466 564.873,451.132 567,448.5C 573.992,437.164 582.159,426.664 591.5,417C 593.579,416.192 595.579,416.359 597.5,417.5C 587.576,431.013 577.409,444.347 567,457.5C 566.125,458.873 565.625,460.373 565.5,462C 566.59,465.011 568.09,467.844 570,470.5C 580.517,483.683 590.683,497.183 600.5,511C 597.518,511.498 594.518,511.665 591.5,511.5C 591.649,510.448 591.483,509.448 591,508.5C 583,497.833 575,487.167 567,476.5C 564.651,473.983 562.151,471.65 559.5,469.5C 548.617,482.255 538.45,495.589 529,509.5C 527.556,511.155 525.722,511.822 523.5,511.5 Z"/></g>
<g><path style="opacity:1" fill="#fcf6db" d="M 106.5,455.5 C 110.476,456.447 114.476,456.613 118.5,456C 117.376,456.249 116.376,456.749 115.5,457.5C 120.167,458.833 124.833,460.167 129.5,461.5C 130.243,462.182 130.909,462.849 131.5,463.5C 125.609,462.482 119.776,461.149 114,459.5C 111.177,458.509 108.677,457.175 106.5,455.5 Z"/></g>
<g><path style="opacity:1" fill="#eae3aa" d="M 452.5,453.5 C 452.104,456.721 450.771,459.388 448.5,461.5C 449.27,458.504 450.604,455.837 452.5,453.5 Z"/></g>
<g><path style="opacity:1" fill="#a48b39" d="M 937.5,417.5 C 938.833,448.833 938.833,480.167 937.5,511.5C 935.5,511.5 933.5,511.5 931.5,511.5C 931.5,480.167 931.5,448.833 931.5,417.5C 933.5,417.5 935.5,417.5 937.5,417.5 Z"/></g>
<g><path style="opacity:1" fill="#f5eecb" d="M 183.5,453.5 C 186.164,455.484 187.831,458.151 188.5,461.5C 187.5,461.5 186.5,461.5 185.5,461.5C 185.713,458.549 185.046,455.882 183.5,453.5 Z"/></g>
<g><path style="opacity:1" fill="#9a8437" d="M 1099.5,423.5 C 1099.5,423.167 1099.5,422.833 1099.5,422.5C 1100.5,422.414 1101.33,422.748 1102,423.5C 1102.33,426.167 1102.67,428.833 1103,431.5C 1103.33,428.5 1103.67,425.5 1104,422.5C 1105.01,423.337 1106.18,423.67 1107.5,423.5C 1107.5,452.833 1107.5,482.167 1107.5,511.5C 1105.17,511.5 1102.83,511.5 1100.5,511.5C 1100.83,481.995 1100.5,452.662 1099.5,423.5 Z"/></g>
<g><path style="opacity:1" fill="#c9a736" d="M 395.5,423.5 C 395.5,452.833 395.5,482.167 395.5,511.5C 393.5,511.5 391.5,511.5 389.5,511.5C 389.5,482.5 389.5,453.5 389.5,424.5C 391.598,425.484 393.598,425.151 395.5,423.5 Z"/></g>
<g><path style="opacity:1" fill="#cebe88" d="M 675.5,466.5 C 676.167,466.5 676.833,466.5 677.5,466.5C 679.403,466.796 681.07,467.463 682.5,468.5C 679.848,468.59 677.515,467.924 675.5,466.5 Z"/></g>
<g><path style="opacity:1" fill="#c0ad68" d="M 683.5,468.5 C 685.857,468.337 688.19,468.503 690.5,469C 693.412,470.232 696.078,471.732 698.5,473.5C 693.274,471.98 688.274,470.314 683.5,468.5 Z"/></g>
<g><path style="opacity:1" fill="#a99131" d="M 885.5,420.5 C 893.836,422.672 899.836,427.672 903.5,435.5C 903.41,438.152 904.076,440.485 905.5,442.5C 907.679,459.977 900.679,472.144 884.5,479C 891.956,489.413 899.29,499.913 906.5,510.5C 904.235,511.647 901.902,511.814 899.5,511C 892.303,500.983 884.97,491.15 877.5,481.5C 865.345,480.505 853.011,480.171 840.5,480.5C 840.5,490.833 840.5,501.167 840.5,511.5C 838.5,511.5 836.5,511.5 834.5,511.5C 834.5,499.5 834.5,487.5 834.5,475.5C 850.543,475.904 866.543,475.404 882.5,474C 883.056,473.617 883.389,473.117 883.5,472.5C 896.129,465.565 900.962,454.898 898,440.5C 895.908,434.958 892.408,430.625 887.5,427.5C 886.657,425.827 885.324,424.66 883.5,424C 879.994,423.371 876.66,422.371 873.5,421C 877.428,419.284 881.428,419.117 885.5,420.5 Z"/></g>
<g><path style="opacity:1" fill="#fdfbec" d="M 121.5,468.5 C 132.301,468.511 140.968,472.677 147.5,481C 149.266,486.3 148.6,491.133 145.5,495.5C 144.67,490.193 144.003,484.859 143.5,479.5C 140.62,478.358 137.62,477.358 134.5,476.5C 134.167,476.167 133.833,475.833 133.5,475.5C 134.729,474.719 136.062,474.219 137.5,474C 135.12,472.243 132.62,472.077 130,473.5C 127.176,471.589 124.342,469.922 121.5,468.5 Z"/></g>
<g><path style="opacity:1" fill="#eee1b8" d="M 877.5,481.5 C 865.5,481.5 853.5,481.5 841.5,481.5C 841.827,491.681 841.494,501.681 840.5,511.5C 840.5,501.167 840.5,490.833 840.5,480.5C 853.011,480.171 865.345,480.505 877.5,481.5 Z"/></g>
<g><path style="opacity:1" fill="#c4b67f" d="M 1048.5,417.5 C 1046.5,417.5 1044.5,417.5 1042.5,417.5C 1042.5,444.5 1042.5,471.5 1042.5,498.5C 1041.21,498.737 1040.21,498.404 1039.5,497.5C 1041.49,471.188 1042.16,444.521 1041.5,417.5C 1043.83,416.167 1046.17,416.167 1048.5,417.5 Z"/></g>
<g><path style="opacity:1" fill="#d9c571" d="M 264.5,417.5 C 263.167,417.5 261.833,417.5 260.5,417.5C 260.5,448.833 260.5,480.167 260.5,511.5C 259.336,480.003 259.169,448.336 260,416.5C 261.915,415.084 263.415,415.418 264.5,417.5 Z"/></g>
<g><path style="opacity:1" fill="#a28c36" d="M 976.5,417.5 C 984.219,425.908 991.719,434.575 999,443.5C 1012.51,461.197 1026.01,478.863 1039.5,496.5C 1039.5,496.833 1039.5,497.167 1039.5,497.5C 1040.21,498.404 1041.21,498.737 1042.5,498.5C 1042.5,471.5 1042.5,444.5 1042.5,417.5C 1044.5,417.5 1046.5,417.5 1048.5,417.5C 1049.5,448.662 1049.83,479.996 1049.5,511.5C 1044.46,511.985 1040.62,509.985 1038,505.5C 1020.01,481.685 1001.51,458.352 982.5,435.5C 981.925,433.589 980.925,431.922 979.5,430.5C 979.5,430.167 979.5,429.833 979.5,429.5C 979.179,427.952 978.179,427.285 976.5,427.5C 976.318,432.794 975.818,432.794 975,427.5C 974.801,449.184 974.301,470.85 973.5,492.5C 974.199,498.48 974.699,504.48 975,510.5C 975.333,489.5 975.667,468.5 976,447.5C 976.5,468.831 976.667,490.164 976.5,511.5C 975.167,511.5 973.833,511.5 972.5,511.5C 972.5,480.167 972.5,448.833 972.5,417.5C 973.833,417.5 975.167,417.5 976.5,417.5 Z"/></g>
<g><path style="opacity:1" fill="#f6ecd6" d="M 979.5,430.5 C 980.925,431.922 981.925,433.589 982.5,435.5C 981.542,435.047 980.708,434.381 980,433.5C 979.832,459.67 979.332,485.67 978.5,511.5C 978.169,484.328 978.502,457.328 979.5,430.5 Z"/></g>
<g><path style="opacity:1" fill="#fdfbe8" d="M 1041.5,417.5 C 1042.16,444.521 1041.49,471.188 1039.5,497.5C 1039.5,497.167 1039.5,496.833 1039.5,496.5C 1040.17,470.167 1040.83,443.833 1041.5,417.5 Z"/></g>
<g><path style="opacity:1" fill="#a79664" d="M 979.5,429.5 C 979.5,429.833 979.5,430.167 979.5,430.5C 978.502,457.328 978.169,484.328 978.5,511.5C 978.167,511.5 977.833,511.5 977.5,511.5C 976.842,483.813 977.509,456.48 979.5,429.5 Z"/></g>
<g><path style="opacity:1" fill="#988033" d="M 979.5,429.5 C 977.509,456.48 976.842,483.813 977.5,511.5C 977.167,511.5 976.833,511.5 976.5,511.5C 976.667,490.164 976.5,468.831 976,447.5C 975.667,468.5 975.333,489.5 975,510.5C 974.699,504.48 974.199,498.48 973.5,492.5C 974.301,470.85 974.801,449.184 975,427.5C 975.818,432.794 976.318,432.794 976.5,427.5C 978.179,427.285 979.179,427.952 979.5,429.5 Z"/></g>
<g><path style="opacity:1" fill="#d1ae30" d="M 237.5,417.5 C 239.167,417.5 240.833,417.5 242.5,417.5C 242.5,418.5 242.5,419.5 242.5,420.5C 231.025,438.769 219.525,457.102 208,475.5C 206.562,487.424 206.062,499.424 206.5,511.5C 204.167,511.5 201.833,511.5 199.5,511.5C 199.667,500.162 199.5,488.828 199,477.5C 198.148,476.429 197.315,475.429 196.5,474.5C 194.579,469.647 191.912,465.314 188.5,461.5C 187.831,458.151 186.164,455.484 183.5,453.5C 178.253,442.796 172.253,432.463 165.5,422.5C 165.461,421.417 165.127,420.417 164.5,419.5C 165.167,419.167 165.833,418.833 166.5,418.5C 168.423,419.092 170.089,420.092 171.5,421.5C 182.161,438.151 192.827,454.818 203.5,471.5C 214.428,453.24 225.762,435.24 237.5,417.5 Z"/></g>
<g><path style="opacity:1" fill="#fef7d4" d="M 155.5,481.5 C 156.163,483.641 156.497,485.975 156.5,488.5C 156.471,491.269 155.805,493.603 154.5,495.5C 154.5,494.5 154.5,493.5 154.5,492.5C 155.482,489.038 155.815,485.371 155.5,481.5 Z"/></g>
<g><path style="opacity:1" fill="#c9b979" d="M 777.5,474.5 C 764.677,475.495 751.677,475.829 738.5,475.5C 738.5,487.5 738.5,499.5 738.5,511.5C 737.505,499.345 737.171,487.011 737.5,474.5C 750.833,474.5 764.167,474.5 777.5,474.5 Z"/></g>
<g><path style="opacity:1" fill="#b0a66c" d="M 976.5,417.5 C 975.167,417.5 973.833,417.5 972.5,417.5C 972.5,448.833 972.5,480.167 972.5,511.5C 971.502,480.004 971.168,448.338 971.5,416.5C 973.415,416.216 975.081,416.549 976.5,417.5 Z"/></g>
<g><path style="opacity:1" fill="#d9bc5c" d="M 151.5,475.5 C 153.822,476.802 155.155,478.802 155.5,481.5C 155.815,485.371 155.482,489.038 154.5,492.5C 155.11,486.458 154.11,480.792 151.5,475.5 Z"/></g>
<g><path style="opacity:1" fill="#d3c68f" d="M 773.5,480.5 C 764.348,481.494 755.015,481.827 745.5,481.5C 745.827,491.681 745.494,501.681 744.5,511.5C 744.5,501.167 744.5,490.833 744.5,480.5C 754.167,480.5 763.833,480.5 773.5,480.5 Z"/></g>
<g><path style="opacity:1" fill="#beb168" d="M 883.5,472.5 C 883.389,473.117 883.056,473.617 882.5,474C 866.543,475.404 850.543,475.904 834.5,475.5C 834.5,487.5 834.5,499.5 834.5,511.5C 833.505,499.345 833.171,487.011 833.5,474.5C 850.239,474.999 866.906,474.332 883.5,472.5 Z"/></g>
<g><path style="opacity:1" fill="#c1a131" d="M 459.5,452.5 C 457.919,454.142 457.253,456.142 457.5,458.5C 449.125,475.942 441.125,493.609 433.5,511.5C 431.167,511.5 428.833,511.5 426.5,511.5C 426.687,509.436 427.187,507.436 428,505.5C 435.424,491.213 442.257,476.546 448.5,461.5C 450.771,459.388 452.104,456.721 452.5,453.5C 454.247,449.009 456.247,444.675 458.5,440.5C 459.906,438.526 461.406,436.526 463,434.5C 464.016,435.634 464.683,435.301 465,433.5C 465.706,435.971 465.373,438.305 464,440.5C 463.667,439.833 463.333,439.167 463,438.5C 460.779,442.834 459.612,447.501 459.5,452.5 Z"/></g>
<g><path style="opacity:1" fill="#bbab69" d="M 655.5,499.5 C 652.598,498.422 649.598,497.756 646.5,497.5C 646.62,496.414 647.287,495.747 648.5,495.5C 651.12,496.47 653.453,497.804 655.5,499.5 Z"/></g>
<g><path style="opacity:1" fill="#d7b22d" d="M 97.5,434.5 C 94.6575,444.236 97.6575,451.236 106.5,455.5C 108.677,457.175 111.177,458.509 114,459.5C 119.776,461.149 125.609,462.482 131.5,463.5C 139.704,465.057 146.371,469.057 151.5,475.5C 154.11,480.792 155.11,486.458 154.5,492.5C 154.5,493.5 154.5,494.5 154.5,495.5C 151.878,499.457 148.878,503.124 145.5,506.5C 141.147,508.293 136.814,509.96 132.5,511.5C 130.833,511.5 129.167,511.5 127.5,511.5C 123.167,511.5 118.833,511.5 114.5,511.5C 109.485,511.959 104.819,510.959 100.5,508.5C 95.768,506.717 91.6014,504.051 88,500.5C 87.2883,498.305 87.9549,496.638 90,495.5C 92.1474,497.478 94.6474,498.811 97.5,499.5C 101.162,503.597 105.829,505.597 111.5,505.5C 121.69,507.765 131.357,506.598 140.5,502C 143.021,500.442 144.688,498.275 145.5,495.5C 148.6,491.133 149.266,486.3 147.5,481C 140.968,472.677 132.301,468.511 121.5,468.5C 115.57,466.501 109.57,464.501 103.5,462.5C 99.498,460.161 96.1647,457.161 93.5,453.5C 94.5,453.5 95.5,453.5 96.5,453.5C 95.6679,447.516 95.5012,441.516 96,435.5C 96.3826,434.944 96.8826,434.611 97.5,434.5 Z"/></g>
<g><path style="opacity:1" fill="#f9eebe" d="M 97.5,499.5 C 102.469,500.902 107.135,502.902 111.5,505.5C 105.829,505.597 101.162,503.597 97.5,499.5 Z"/></g>
<g><path style="opacity:1" fill="#fdf9d8" d="M 196.5,474.5 C 197.315,475.429 198.148,476.429 199,477.5C 199.5,488.828 199.667,500.162 199.5,511.5C 199.007,499.229 198.007,486.896 196.5,474.5 Z"/></g>
<g><path style="opacity:1" fill="#faeaaf" d="M 145.5,506.5 C 141.937,509.769 137.604,511.436 132.5,511.5C 136.814,509.96 141.147,508.293 145.5,506.5 Z"/></g>
<g><path style="opacity:1" fill="#b59b32" d="M 699.5,467.5 C 711.477,471.536 716.311,479.869 714,492.5C 709.038,504.078 700.205,510.411 687.5,511.5C 682.167,511.5 676.833,511.5 671.5,511.5C 662.167,510.444 654.001,506.777 647,500.5C 646.517,499.552 646.351,498.552 646.5,497.5C 649.598,497.756 652.598,498.422 655.5,499.5C 665.905,505.684 677.239,507.851 689.5,506C 704.186,502.439 709.353,493.605 705,479.5C 703.086,477.144 700.919,475.144 698.5,473.5C 696.078,471.732 693.412,470.232 690.5,469C 688.19,468.503 685.857,468.337 683.5,468.5C 683.167,468.5 682.833,468.5 682.5,468.5C 681.07,467.463 679.403,466.796 677.5,466.5C 677.97,465.307 678.97,464.64 680.5,464.5C 686.908,465.137 693.241,466.137 699.5,467.5 Z"/></g>
<g><path style="opacity:1" fill="#fdfcea" d="M 100.5,508.5 C 104.819,510.959 109.485,511.959 114.5,511.5C 116.634,513.033 119.134,513.7 122,513.5C 124.295,513.453 126.129,512.787 127.5,511.5C 129.167,511.5 130.833,511.5 132.5,511.5C 131.856,513.478 130.522,514.811 128.5,515.5C 122.867,514.732 117.2,514.066 111.5,513.5C 108.425,514.445 105.425,513.945 102.5,512C 102.833,511.667 103.167,511.333 103.5,511C 102.058,510.623 101.058,509.79 100.5,508.5 Z"/></g>
<g><path style="opacity:1" fill="#fcf6e4" d="M 337.5,417.5 C 338.174,449.373 338.84,481.373 339.5,513.5C 335.974,515.327 332.307,515.161 328.5,513C 327.366,511.984 327.699,511.317 329.5,511C 327.941,510.02 326.274,509.187 324.5,508.5C 325.803,506.411 325.303,504.744 323,503.5C 321.901,506.044 320.735,506.044 319.5,503.5C 320.376,502.749 321.376,502.249 322.5,502C 321.748,501.329 321.414,500.496 321.5,499.5C 324.698,503.355 328.031,507.188 331.5,511C 333.473,511.495 335.473,511.662 337.5,511.5C 337.5,480.167 337.5,448.833 337.5,417.5 Z"/></g>
<g><path style="opacity:1" fill="#f5efb5" d="M 114.5,511.5 C 118.833,511.5 123.167,511.5 127.5,511.5C 126.129,512.787 124.295,513.453 122,513.5C 119.134,513.7 116.634,513.033 114.5,511.5 Z"/></g>
<g><path style="opacity:1" fill="#efe7ba" d="M 671.5,511.5 C 676.833,511.5 682.167,511.5 687.5,511.5C 685.257,512.812 682.59,513.478 679.5,513.5C 676.41,513.478 673.743,512.812 671.5,511.5 Z"/></g>
</svg>
